<?xml version="1.0" encoding="UTF-8"?>
<svg enable-background="new 0 0 426.29 211.156" viewBox="0 0 426.29 211.156" xmlns="http://www.w3.org/2000/svg">
 <path d="m41.704,14.143c.04-.016.06-.031.06-.042 0-.07-.028-.031-.06.042zm101.375,118.382c0,0-1.91-.398-1.993-.637s-3.346-3.106-3.421-3.026c-.085.078-1.359-1.28-1.519-.877s-2.628.398-2.628.398l-2.629-.642c0,0-1.112.802-.875.479s.079-2.229 0-1.908-3.985-1.675-3.985-1.675l-1.357,1.195v-1.514l-2.066-1.273 .241-1.674-.963-.797c0,0-.155.238-.235.08s-.638-3.345-.638-3.345l-3.03-2.471-3.661-.16-3.348-1.837-.717-1.67c0,0-1.913-.873-1.913-1.113s-.552-.078-.716-.161-.075-.872-.075-.872l-.883-.722-.315-.214-.779-.236-.477-.666c0,0 1.733-.774 1.554-.712-.175.056-3.881.593-3.881.593l-.358.715-1.734-.894-2.927-.181c0,0-2.095-.834-2.035-1.072s-.656-1.136-.656-1.136-.478,1.136-.598,1.255-1.61,1.374-1.61,1.374l.115,1.915-1.014-1.08 .719-1.016v-1.432c0-.183.896-.598.896-.598l-.359-.774c0,0-1.073.298-1.073.478s-1.434,1.014-1.434,1.014l-1.735.656h-.776c0,0-.775,1.252-.96,1.315s-.113,1.198-.113,1.198-1.917,2.146-2.037,1.908-2.146-1.908-2.146-1.908l-2.395.294-1.372.72-1.674-1.136-1.313-2.031 .123-2.389 .715-2.633 .298-1.729-1.793-1.318c0,0-3.644.299-3.644.12s-1.975.063-1.913-.12 .717-1.312.717-1.494 .48-1.552.48-1.552l.777-1.552 1.015-2.982 .595-1.021-2.985-.178-1.794.716-1.015,2.99-5.08,1.373-1.254-.955c0,0-.12.538-.056.239s-1.555-2.393-1.555-2.393l-.778-2.924c0,0 2.034-6.039 1.97-5.916s.064-2.215.064-2.215l6.392-4.18 2.447.358 .597.597 1.497-.243 1.493-1.491 1.909.24 1.85-.357 1.138,1.256 1.669-.656 .897.958 .542.593v1.019l-.418.954 .418,2.152 1.194,1.675 .776.297 .956-2.628-.181-2.45-.417-1.977v-1.433l2.452-2.981 3.163-2.274 2.51-1.434 2.211-2.389-.119-2.271 .961-.177 .947-2.03 .957.112 1.856-2.328 3.103-1.072 1.916-.357 .598-.657-.717-.597 1.492-2.215 4.722-1.852 2.87-.836-2.334,1.495 .478,1.133 1.733-.477 1.256-.775 3.285-.895c0,0 .781-1.317.658-1.018s1.675-.299 1.675-.299l-.357-.719 .119-.955-.954.359-1.441,1.553-2.327-.114-1.073-1.617 1.015-1.374 .955-1.909c-.061.116-1.611-.48-1.611-.48l-2.332.833c-.238,0-2.449,1.316-2.391,1.138s-1.136.657-1.136.657l3.046-2.446 1.257-.182 1.435-1.317h6.871l2.331-.479 3.105-1.671 .243.3-1.316,1.252-1.614,1.674-1.557,1.67-.775,1.018 2.45.119c0,0 1.91.048 2.092,0 .239-.06.298.835.298.835l1.014-.716 .541,1.374 1.794-1.374-.541-1.554 .481-1.437-2.092.064v-.778c0,0-.775-.896-.836-.778s1.194-1.013 1.133-.894-.54-.596-.54-.596l1.439-1.798-.716-2.028-.243-1.013-1.853-.897-.656-.898-.839-.656 .66-1.555-.3-1.134c0,0-.535-3.706-.595-3.588s-2.514,2.034-2.514,2.034l-2.505,1.257-1.319-1.136 .124-1.498 1.135-1.074-1.856-.597-.119-.478c0,0-1.672-1.673-1.79-1.555l-.538.542-3.945-.364-1.373,2.392-.298,1.254c0,0-2.161,2.162-2.425,2.329 .158-.046 1.169.96 1.169.96l-.899,2.147-3.405,1.972-1.67.242c0,0-1.018,3.707-.958,3.944s-1.373.894-1.373.894l-1.016.718-.42-1.312c0,0-.458-1.004-.64-1.258 .267.11 1.237.239 1.237.239l.182-.839-.958.062 .42-1.375 .896-1.491-3.109-.24-.71-.838-1.558-.24-.123-.659-1.075-.655-1.316-.597-1.431.179-.061-1.252 .357-1.195-1.431-.238c0,0 2.51-2.572 2.45-2.452s7.047-3.529 7.047-3.529l.839-.892 1.372-.123 2.987-1.371 2.271-1.553 .239.12-1.729,1.612-.478.594-1.375.659 1.256.178-.183.72 1.377-.24 1.372-1.136 1.08.362 .479.533 1.491-.06-.06-1.134-2.327-1.671-.544-.537-.236-.599 1.012.124 .843.716 .894-.9 1.792-.235 1.792-1.26-.116-.775 1.372-1.313-.899-.954 2.392-.06 2.087.06c0,0 1.019-.477 1.199-.179s1.732,1.431 1.732,1.431l-.597.538-2.453.302-.597,1.191 1.797.242 1.371-1.433 1.492-.121 .24,1.431c0,0-1.671.958-1.909,1.017s-1.257.537-1.257.537l-.06,1.079-1.613.177-1.672-.296-.775.058-1.257,1.014 1.016.896c0,0 1.495-.597 1.733-.775s1.015-.539 1.193-.238 1.192,1.134 1.192,1.134l.843,1.618 .776.237 2.387.776c0,0 1.675.419 1.675.536s-.175-1.014-.175-1.014l-1.263-1.495c0,0-.055-.418.358-.302 .423.119 1.44,1.013 1.44,1.013 .176.06 1.373.783 1.373.783l.477-1.316 1.074-.658-.415-.777-.599-.655-.656-.777 .058-.895 .359-.239c.178-.118.716-.537.837-.302s1.317,1.794 1.317,1.794l1.13.237 .541-.894c0,0 1.491-.181 1.491-.12s.12-.716.12-.716l1.376-.357-1.972-1.738-1.074-.539-.84.24-.771-.896 .834-.774 .361-1.078-.957-.955-1.494-.298-.362-.78c0,0-1.252-.178-1.432-.061s-1.076-1.073-1.076-1.073l-.777-1.014c-.121-.061-.538-.482-.776-.419s-2.749.119-2.749.119l-.597.18-.775-.6-3.11.779-1.611,1.255c0,0-.118-.718 0-.896s1.252-.836 1.432-.955-1.373-.182-1.373-.182-2.87.958-2.989,1.137-2.331,1.91-2.331,1.91l.064,1.435 2.029.301 .776.175-.538.481-.417.895-1.313.717-1.617,1.193-1.374.537-.237-.954 1.194-.717c0,0-.239-1.491-.359-1.373s-1.372-.059-1.433.12 .061-1.133.061-1.133l-.061-1.257-.298-.959c0,0 1.017-.835 1.193-.894s2.092-.18 2.092-.18l3.048-1.732-2.511-.117c0,0-2.327.057-2.449.299s-1.67,1.85-1.67,1.85l-.957.717-3.167,1.975-.121,1.372-1.313-.238-.954-.18-2.387.955v1.314l-4.369.242c0,0-2.088-.302-2.088-.597 0-.302-.776-.898-1.014-.898s-2.931.836-2.931.836l-.119.835-3.107-.176c0,0-2.568.474-2.508.238s-1.376-.121-1.376-.121l2.151-.956-1.491-.717-2.693-.417-1.91-.597-2.147.299-.239-.895-1.916.774-.538-1.255-1.313.599c0,0-4.899,1.015-5.139,1.074s-1.431-.478-1.431-.478l-1.499.716-2.864.179-1.138-.835-2.329-.477-2.57.119-4.783-.779c0,0-2.746-.418-2.567-.481s-1.491-.478-1.491-.478 .067-.199.119-.315c-.586.248-5.258,1.031-5.258,1.031l-6.272,2.035-4.124.835c0,0 .119,1.075.177,1.253s.419,1.375.419,1.375l-1.134.239h-1.2l.603-.835-6.101,1.672 .125.657-.421.777 1.912.179 1.615.179c0,0 .896-.536.896-.357s-.478,1.55-.478,1.55l-1.851.12c-.119-.179-1.077.063-1.077.063s-1.257.771-1.316.597c-.06-.179-2.506.418-2.506.418l-2.812,1.614-1.073,1.612-.119,1.193 2.091-.355-1.197,1.615 1.375-.063c0,0 1.615,0 1.734.243s.835.12.835.239-14.22,5.616-14.341,5.438-2.209.954-2.209.954 2.745-.477 2.928-.477 4.239-.958 4.239-.958l1.913-.538c0,0 4.124-1.194 4.179-1.374s2.931-1.674 3.11-1.674 1.135-.417 1.197-.177 4.122-1.073 4.122-1.073 1.432-1.019 1.316-1.198-.958-.657-.719-.715 2.386-.362 2.386-.362 3.229-1.312 3.17-1.135-3.286,2.334-3.286,2.334l4.602-.898 1.854-.779c0,0 1.552-.716 1.433-.536s1.793.715 1.793.894 4.001.779 4.001.779l1.196,1.793-.242,2.328-.118,2.931 2.15-.24-.535,1.911 .123,3.169c0,0 .115,1.134.115,1.313s-1.673-.357-1.673-.357-.24,1.373-.061,1.551c.186.179 2.155,2.151 2.155,2.151l-.658.838-1.497,3.704-3.525,4.061-.595,2.216-1.734,1.909 .299,1.375c0,0-.478.958-.354,1.076s.834,6.632.834,6.632l2.511,1.552 .655,1.196 .359,4.899 1.073,2.21-1.193.837 1.373,1.908 .539.063 1.079,1.252-.421,1.675 1.133.895 1.078,1.674 .18.835 1.017-1.014-1.017-2.091c0,0-.717-1.557-.657-1.911 .06-.36-.954-3.049-.954-3.049s-.961-2.033-.838-2.211-.721-1.372-.721-1.372l.421-2.449 1.733.358c0,0 .299,2.266.299,2.509s.419,1.673.419,1.673l2.269,3.162-.356,1.616 4.359,5.197-.06,2.093-.658,1.013 .358,1.437 3.647,2.688 .596-.118 1.074,1.076 3.942,1.973 1.973.479 2.334-.719 1.492.719 2.271,2.628 2.33.595 2.387.84h1.141l.299,1.371c0,0 1.075,1.376 1.314,1.555s.06,1.734.06,1.734l1.014.534 1.196,1.257 .776.72 .839.954 .536-.358 1.076.297 1.55,1.437 1.016-.601-.292-1.133 .948-.955h.839l.898.715-.061.837 1.075,1.732 .061,4.84-.956,1.556-1.317.896-.056,1.43-1.377.537-.537,1.913-.838,1.674 .179,1.432 1.197,1.076-1.078,1.141-.774,1.132 .711,2.266c0,0 .357,1.138.357,1.017s1.141.781 1.141.781l2.09,4.177 2.028,2.933c0,0 2.951,5.947 3.011,5.994 .891.655 7.393,5.338 7.393,5.338l1.109,5.815 .324,12.267 .954,3.51-.402,7.091-.315,1.432c0,0 1.273,2.23 1.273,2.552s.238,3.103.238,3.103l.875,3.028 1.035-.078-.637-1.752 .799.08 .553,2.786 .079,1.113-.632-.557-.56.557-.399.48 .797.72-.397,1.108-.158,1.438 1.115.16 .796.636-.796,1.354c0,0 4.936,8.684 9.08,9.717 4.144,1.04 5.338,1.356 5.338,1.356l1.756-.957 .551-.715-3.661-1.274-2.788-3.032-.56-1.59 .876-.635-.157-1.198c0,0 0-.875.314-1.113 .322-.238.958-1.434.958-1.434l-.958-.479-1.591-1.591 .159-1.837 .958-.553c0,0 .077-1.039-.08-1.277s.239-1.435.478-1.513 .872-1.039.872-1.039h-1.11l-.636-.236-.8-1.271v-.96l1.354.398 1.279-.24 .716-1.035c0,0-.239-.636-.318-.874s.159-1.276.397-1.356c.238-.075 1.671.08 1.671.08l2.71-.715c0,0 1.037-1.835.958-2.153s-.08-1.354-.08-1.354 0-.715-.636-.8c-.641-.077-.641-.312-.8-.957-.162-.635-.641-1.352-.641-1.352l-.794.16 .719-.715 1.593,1.191 2.388.403 1.834-1.835 1.276-3.108 .556-2.311h1.193l1.273-2.31 .481-2.15-.398-2.632 .557-.951 4.141-2.789 3.11-1.037 1.04-.8c0,0 1.588-2.148 1.588-2.387s.639-3.348.639-3.348 .715-3.66.633-3.898 .162-3.428 0-3.508 .082-.958.082-.958l3.028-4.3 1.434-3.27c0,0 1.04-1.671.879-1.989s-1.036-3.027-1.036-3.027zm31.506-116.629c0,0 .481-2.393.123-2.632s1.434-1.672 1.434-1.672 2.625-1.196 2.745-1.551c.119-.361-.716-.246-.716-.246l.237-1.79 1.676-.597c0,0-.954-1.436-1.197-2.154-.236-.71 2.87-1.072 2.87-1.072l5.497-2.509-6.57.716-.243-.834-6.933-1.555-13.857.481-1.551.836h-4.787l-6.689.598c0,0-6.333.834-6.692,1.072s.718.599.718.599l-.119.837-7.771.958-.475.836c0,0 .835.835.954.955s3.346.835 3.346.835l3.825.478c0,0 2.152.957 2.506,1.312 .362.358.246,1.439.124,2.036s-.478.716-.955,1.433 .955.358.955.358l1.674.835c0,0-.478,0-1.198.124s-1.674.354-1.674.354l-.119,1.319 2.394-.477-.246.834-1.67.358-1.67,2.029-.121,3.824 .357,3.226 .956,2.63 1.555.239 1.793,1.076 2.393-.122 2.386-3.225 2.508-2.39 .718-1.314 1.198-.716 2.625-.596 3.348-.72 3.466-2.271c.355-.238 8.959-2.863 8.959-2.863l1.913.118zm2.394,8.72 3.346-1.074 .713-1.313-1.31-1.074-6.098.716-1.792-1.078-2.148,1.197c0,0 1.074.478 1.432.716s1.075-.238 1.075-.238v1.075c0,0 1.912,1.074 1.67,1.435s3.112-.362 3.112-.362zm5.893,16.29-.677.442-.2.759 .598.357 .957.199 .992-.239 .842-.478 .236-.238 1.395-.086 .159-.591 .322-.6v-1.713l.756-.439-.243-1.112-1.192-.278-.955-.16-.636.198-.365.517-.473.515c.123-.115.437-.115.362.083s-.405.397-.405.397h-.47l-.407-.239-.594.079-.201.359 .244.558-.403.4 .478.399 .476.115-.074.56-.522.236zm4.738-4.697c.28.116.397.279.358.396s.598.202.598.202l.52-.118-.358.557c0,0 .078.359.196.519s.522,0 .522,0 .957-.16 1.077-.12-.043.398-.043.398l.362.556c0,0 .195.798.235,1.035s-.319.158-.319.158-.75.119-.917.084c-.159-.04-.474.275-.752.592-.281.325.04.202.04.202h.592c0,0 .047.396.084.561 .036.159-.479.315-.635.275s-.878.321-.878.321l.037.598 .879.079 .878.12 .159.278c0,0-.564.12-.72,0s-.637.637-.637.637l-.437.478-.92.716 .517.24 .32-.4 .801.04 .87-.119c0,0 .523-.637.643-.637l1.353-.038s.996-.2 1.115-.12 .917.241 1.041.279 1.67-.438 1.67-.438 .317-.517.396-.676-.435-.318-.554-.438 .396-.278.637-.397 .317-.559.438-.756-.161-.601-.201-.717-.597-.086-.755-.123-.836.037-.836.037l.036-.796c0,0-1.872-2.548-1.832-2.667s-.438-.876-.637-.913-.439-.205-.678-.523 .319-.717.319-.717 .675-.716.756-.874-.082-.637-.199-.677-1.511.04-1.511.04-.397-.318-.36-.437c.041-.125.439-.162.56-.162 .113,0 .835-1.391.994-1.431s-.121-.398-.121-.398l-.555.232-.518.762c0,0-.482.119-.677,0s-.599,0-.758-.04-.523.478-.523.478-.552.597-.713.636-.717.677-.677.716 .079.56.079.56-.119.196-.318.236 .158.716.158.716l.482.242c0,0-.283.276-.441.239s-.52.4-.242.517zm187.373-8.642c0-.033-.018-.033-.052-.013 .035.026.052.035.052.013zm-48.91,70.304c.08-.119 1.193-.677 1.232-.959 .042-.273.837,2.594.837,2.594l.562,1.99c0,0 .434,1.432.594,1.712s.395,2.112.395,2.272 .524,1.23.283,1.352-.637.039-.561.2 .277,1.035.277,1.2c0,.157-.117,1.229-.193,1.429s-.119.718-.119.953c0,.241.152.683.152.798 0,.122.123.32.123.32s.162.082.238-.12 .678-.278.761-.2 .992,1.153 1.074,1.476 1.074,1.873 1.191,2.031 .641.679.316,1.115c-.316.438-.316.517-.273.755s.16,1.113.555,1.597c.403.475 1.234,1.391 1.234,1.391s1.039.722 1.199.921 1.312.316 1.435.793c.114.477.435.959.435.959s.914.276.914.399c0-.099-.006-1.49-.116-1.68-.117-.194-1.072-2.148-1.196-2.266s-.315-.398-.196-.911c.119-.524-.081-1.879-.081-1.879l-1.872-2.232c0,0-1.634-1.594-1.673-1.512s-1.277-.479-1.229-.957c.032-.477-.129-1.67-.486-1.95-.354-.277-.673-.719-.952-.877s-.078-1.675 0-1.874 .715-1.949.678-2.066 .158-1.752.158-1.752 .516-.684.635-.443 .678,0 .518.717-.076,1.16-.076,1.16l1.43-.282 .999,1.038 .719.953 .915.559c0,0 .238,1.077.357,1.152 .122.083.718-.238.718-.238l.916.642c0,0-.52.953-.396,1.196s.233,1.072.233,1.072l.88-.718 1.118-.836 .557-.797 .199-.596 1.59-.681 1.515-1.393-.037-2.949-.479-1.83-1.354-1.913-2.632-2.627-1.031-1.274c0,0-.719-.916-.682-1.153s.196-1.514.196-1.514l.722-.679 1.396-1.394c0,0 .955-.637 1.115-.479s1.432.12 1.473.238 .204.082.117.318c-.08.238.039,1.316.158,1.436s.403.236.522.278c.112.038.516-.121.557-.359s-.041-1.075 0-1.275 .119-.198.24-.238 .713,0 .713,0l.641-.637 1.113.398 1.195-1.038c0,0 .639-.116.719-.038s1.118-.795 1.118-.795l1.074-.24 .953-.399c0,0 .398-.917.398-.799s2.313-2.307 2.313-2.307l.756-1.873 .914-2.668 .557-3.31 .042-.954c0,0-.878.715-.995.758s-.836-.158-.836-.158l.555-.998c0,0 .32-.716.16-.756s-.957-.278-.957-.278 .343-.784.394-.835c-.073,0-1.386-1.356-1.386-1.356s-1.755-2.509-1.835-2.312-1.432-.954-1.556-.954c-.114,0-.196.039-.274-.198s1.195-1.913 1.234-2.037 1.152-1.353 1.356-1.312c.194.04.873.079.873.079s-.163-.795-.28-.835-2.824-.278-2.824-.278-1.074.637-1.115.796c-.046.159-.914.081-.914.081l-.122-.917-1.081-.517-1.231-.438 .042-.837c0,0 .753-.277.874-.363 .119-.08 1.074-.553 1.152-.955s.719-1.035.801-1.155 .594-.557.711-.477 .884.637.799.677c-.075.039-.593.878-.479,1.113 .124.243.681.961.603,1.078s-.32.56-.32.56l.598-.08c0,0 .756-.597.715-.676-.039-.086.598-.758.717-.758s1.437-.283 1.471-.164c.043.121 1.358.438 1.358.438l.24,2.394c0,0 3.187.756 3.187.956s-.36.515-.36.515-.04.638.12.72 .675.515.797.677 .36,1.237.36,1.237-.436.954-.36,1.074 .876.836.876.836l2.272-.876c0,0 1.232-.955 1.232-1.074s-1.312-3.308-1.312-3.308l-3.03-2.076-1.31-1.074 1.83-1.79-.16-1.552c0,0 .398-1.519.478-1.519s1.196-.794 1.196-.794l1.273.881 1.913-1.198 1.076-3.86 .039-5.023-1.713-3.066c0,0-.795-1.872-.919-1.872s-1.271-1.796-1.271-1.796l-2.669-1.192-1.158-.04-.714,1.193-.754-.915-1.036-1.83 .117,1.114c0,0 .16.716.112.875-.03.159-.792-.996-.792-.996s-1.274-.237-1.353-.237-.717-.362-.717-.362 1.879-2.185 1.716-2.107 .318-2.788.318-2.788 .676-1.357.715-1.277 2.625-.278 2.625-.278 4.741-.077 4.702,0 2.313-.156 2.313-.156 .076.677.282.757c.194.078 2.105-.043 2.105-.043l1.395-.317 .674-.082c0,0-.834-.835-.955-.835s-.914-.361-.992-.401 .596-1.55.555-1.79-.117-1.075.199-.995 2.474.081 2.474.081 .872.833.872,1.073 1.395,1.074 1.395,1.074 .759-.836.836-.994c.067-.127.47-.576.624-.65-.192-.157-.818-.982-.818-.982s.674-.759 1.031-.361 1.156,2.111 1.156,2.111-.719,1.791-.719,1.953-.277,1.794-.277,1.915-.798.834-.798.834-.394,0-.394.199 .552,1.272.552,1.272 .206,1.237.318,1.312c.122.087 4.107,3.547 4.107,3.547l2.587,2.554 1.677,1.391 .475-.118c0,0 .401-1.95.241-1.875-.161.083-.799-.594-.716-.711 .077-.127.236-.685.433-.644l.799.158-1.195-1.512 .396-.834 .92.278-1.236-1.313-.637-1.277c0,0 .677.158.722.276 .035.127.755-.511.515-.554s-1.674-.56-1.674-.68-.834-.317-.88-.478c-.036-.158.161-.795.046-.795s-1.354-.557-1.354-.557l-.802.115-.438-.871 .238-.677c0,0-.763-1.084-.832-1.153 .061.055 1.702-.572 1.858-.639-.008.026.776-.065.845.234 .083.321.438.64.438.64l.841-.796c0,0 .596-.52.835-.402s1.394.363 1.557.519c.142.146.867.352.979.483-.011-.167.014-.684.014-.684l.034-.437 1.123-1.512c0,0 .433-.636.836-.72s1.232-.793 1.391-.672 1.481.08 1.64.438 .873-.12.873-.12-.681-.835-.717-.758-2.233-.879-2.351-.835-1.59-.878-1.59-.878-.761-.279-.797-.279 .593-.319.831-.399 .8-.835.8-.835-.277-.517-.439-.677 .877-.039 1.234.12 2.155.238 2.112.358 1.195.118 1.154.438 .438.396.598.557 1.673.398 1.755.438c.073.039 1.587-.119 1.587.118s.48-.038.48-.038-.238-1.154-.517-1.075-.802-.319-.44-.397 1.037-.478.839-.558-.519-.478-.997-.679-2.389-.633-2.588-.558c-.197.083-3.188-.639-3.381-.639-.204,0-1.239-.275-1.239-.275l-10.197-2.749c0,0-6.333-.676-6.296-.799s-3.663-.437-3.663-.437l2.194,1.833-2.194-.317c0,0-2.706-.438-2.786-.558s-7.572-.159-7.572-.159l-1.113-1.2c0,0-3.587-.592-3.706-.632s-4.582,0-4.582,0l-3.737-.558c0,0-2.513-1.078-3.071-.957s-6.054-.358-6.374-.519-2.504.16-2.504.16l1.783,1.355-2.942-.082-2.948-.041-1.118-.556 .046,1.634c0,0-.839.155-.839-.043s-2.591-1.113-2.591-1.113-2.154-1.91-2.19-1.79-3.498-.678-3.498-.678l-2.158-.396c0,0-.637.277-.559.437s.916.716.797.835-1.43-.119-1.43-.119l-3.387-.119-.602-.637-4.461.04c0,0-1.672-1.316-1.714-1.24s-1.273.286-1.273.286l-.957,1.033-2.706.2 2.912-1.555 1.035-.755c.075-.204-.724-1.396-.878-1.238-.157.161-2.433-.557-2.552-.557s-3.545-.08-3.545-.08c-.242-.039-1.314,0-1.314,0s-.398-1.113-.598-1.074-2.79-.04-2.79-.04-2.308.478-2.395.716c-.071.241.444.478.444.478s-1.234.916-1.355.836-3.706-.08-3.706-.08-4.978,1.074-4.978.954c0-.102-1.49.534-1.837.687 .293.257 1.338.852 1.2.992-.158.158-3.507.318-3.626.078-.107-.219-1.431.286-1.641.318 .241.1 1.809,1.326 1.918,1.513 .119.198.407.478.797.318 .398-.159.756-.318.838-.159s0,.517 0,.517-.998.2-1.113.2-1.316-.678-1.436-.717-1.711-.398-1.912-.398-1.079.119-1.079.119-.676.598-.518.678c.165.079.562.835.683.758s.836-.401.873-.041c.041.354-.834.638-.834.638s-1.2-.482-1.239-.598-.598-.798-.598-1.157-.715-1.632-.914-1.434-.914.279-.914.279l.877.796c0,0 .754.635.555.677s-.756.357-.793.478-.479.794.037.794 1.355.8 1.355.8 .039,1.077.117,1.236 1.312.994 1.312.994 .763-.478.875-.596c.126-.12 1.162-.318 1.4-.08s-.48.835-.677.717-.637-.24-.836-.161l-.203.079s-.277.598 0,.717 .644.519.602.717-.797,1.554-.797,1.554l-1.118.238c-.398-.079-1.033-.358-1.033-.358l1.194-.914 .16-1.237c0,0 .041-.079-.277-.358-.325-.277-1.437-1.272-1.437-1.272s-.676-1.117-.676-1.236c0-.125-.318-.72-.318-.72s-.758-.517-.918-.553-.156-.481-.035-.719-.121-1.313-.162-1.155c-.046.16-1.397-.039-1.558-.079s-.516-.478-.516-.478-.197-.674-.521-.397-.872.397-.872.397l-.557,1.472 .158.598-1.115.759c0,0 .941.809 1.028.871-.068-.033.05.803.087,1.001s1.711.638 1.711.638 .877.357.955.715-.24.797-.24.797l-1.709-.797-3.788-1.193c0,0-3.66-.238-3.583-.357s-1.396-.958-1.396-.958l-.837.437c0,0 .795.561.919.596l1.314.482s.36.199.438.518-.676.715-.676.715-.516-.557-.516-.675-.123-.598-.281-.519l-1.633.837s-1.673.039-1.874.198-1.274.918-1.354.717 .158-1.035.122-1.194-1.675.28-1.675.28-2.108.675-2.191.873-1.033.399-1.197.439-.355.04-.355.04-.834.52-.678.795-1.155.437-1.155.437-.834-.516-.873-.632c-.038-.109.905-.743.995-.797-.122.079-.995-1.036-1.116-1.076-.105-.032-2.27.024-2.656.008 .252.092 1.023.838 1.023.948 0,.12.121,1.276.121,1.276s.632.401.754.354c.119-.036-.122.68-.122.68l-1.069-.119c0,0-.444-.641-.802-.279s-1.551,1.277-1.629,1.158-.758.119-.718.358 .558.755.558.755-.755.637-.681.4c.083-.242-2.067-.797-2.228-.757-.165.04-1.079.319-1.079.319l.396.676c0,0 1.198.079 1.355.318 .165.238-.274.716-.4.716-.112,0-2.902-1.314-2.902-1.314s-.918-.954-.642-1.232c.286-.279.522-.716 0-.716s-1.072-.401-1.108-.56 3.141.322 3.141.322l1.837.196c0,0-.238.242.479,0 .714-.239 1.91-.839 2.07-.873 .16-.047.355-.802.355-.802l-.238-.676-6.847-1.632c0,0-2.274-.677-2.313-.796s-2.032-.321-2.032-.321l-.958.123 .802-.998c0,0-3.112-.919-3.188-.8s-1.356.724-1.356.724l-2.389-.401-3.07.716-3.108.759-4.498,1.91 1.673.159-.721,1.233-1.992,1.479-1.111,1.829-.16.996-1.074,1.153c0,0-.756-.397-.915-.554s-2.791.752-2.791.752l-1.591,1.515c0,0-.398.759-.478.958s.119,2.312.119,2.312 .956,0 .676.278-.24,1.555-.24,1.555l1.117.752c0,0 1.472.482 1.677.44 .191-.039.913-.517 1.035-.597 .111-.078.993-.954 1.271-.918s.994-.758 1.077-.474 .239,1.274.396,1.513 .716.677.954,1.232c.237.559.564,1.119.48,1.233-.083.124-.639.677-.639.677s-1.191.159-1.353.324c-.158.157-.357.236-.477.157s.397-.64.517-.793c.121-.163-.278-.801-.438-.762s-.317-.358-.162-.477 .122-.876.122-.876-.239-.121-.357-.079-1.514.596-1.514.596-.756.797-.796.955-.362.998-.158,1.593c.198.601.675,1.557.675,1.557s.513.356.318.517-.6.756-.6.756l-.951.039c0,0-1.713.203-1.875.279s-1.828.596-1.753.758-.36,1.874-.36,1.874c-.077.04-1.751,1.234-1.949,1.234s-1.433.317-1.433.317-.558,1.474-.596,1.393-1.877.876-1.877.876-1.392-.399-1.432-.56-.519-.516-.557-.396 .476,1.36.476,1.599c0,.233.081.712-.079.556s-.956-.397-1.114-.478-1.515-.042-1.515-.042h-.558c0,0-.679.6-.719.479s-.077.52-.077.52l.396.396 1.438.597 1.353.837 .518,1.273 .596,1.195c0,0-.399,2.469-.473,2.592-.088.117-.921.678-.921.678l-2.591-.044c0,0-1.275-.277-1.394-.317s-1.913.238-1.948.079c-.04-.161-.6-.121-.6-.121l-.282-.317h-.716l-.597.675-.876.044v.713c0,0 .358,1.637.318,1.518s-.158,1.909-.158,1.909-.861,1.731-.948,1.863c.019.052-.047,1.165-.047,1.165l.519.838 .079.993c0,0-.399.915-.239.836s1.437.039 1.472-.119c.04-.158.799-.517.915-.24s.56,0 .684.482c.111.477.553,1.153.596,1.271s.357.239.357.239l.119.322-.242.2-.99,2.227-2.196,1.555-1.312.834-.359.999-.556.637-.16,1.234c0,0 .16,1.551.077,1.633s-2.986,2.828-2.986,2.828l-1.593.358-.88,1.515c0,0-1.194,1.112-1.271,1.316s-.679.956-.679.956 .04,1.59 0,1.353-1.711,1.312-1.711,1.312-.318,1.833-.397,1.915-.875,1.472-.998,1.432-.238.955-.238,1.115 .396.635.396.635 .562,1.08.6.96 .038.36.038.36l-.555.554c0,0 .598.919.598,1.038v2.466l-.64,1.357-.318,1.754-.959.755 .04.479 .838.675 .123.755-.243.839v.84l.601,1.394c0,0 .597.477.716.357s1.31.756 1.472,1.033 1.631,2.032 1.631,2.114 .24.477.24.477l.716,2.43c0,0 3.466,2.866 3.546,2.748s3.705,2.587 3.705,2.587 2.912-1.43 2.873-1.309 2.465-.121 2.465-.121l1.516.238 1.111.518 4.067-1.869 .797-.604 3.144-.115 1.516.591c0,0 .995,1.479.995,1.718s.598,1.312.679,1.152 3.545-.315 3.667-.277 1.63,1.517 1.63,1.517l-.079,1.396-.241,2.466-.479,1.196-.473,1.077-.119.757c0,0 3.579,5.258 3.579,5.297s.917,2.188.917,2.188l1.08,2.752 .638,1.55-.638.876 1.036,2.674-.36,2.625-1.554,3.389-.676,2.508 .199,3.346 1.866,3.864 1.955,4.422 .199,4.862 1.557,2.904 1.118,2.348 1.074,2.553 .555.757c0,0 .083,1.275-.043,1.275-.117,0-.712.043-.552.277 .158.238 1.072,1.833 1.072,1.833l.039.719 1.273.713 1.123-.516c0,0 1.113-.197 1.234-.158s1.668-.52 1.668-.52l2.391.359 1.674-.875 1.833-.119c0,0 3.146-3.069 3.146-2.989s2.902-3.742 2.902-3.742l1.481-1.278 .833-2.508-.118-1.629c0,0 .28-.843.556-1.001s2.987-1.751 2.987-1.751l.563-2.631-.522-2.591c0,0-.4-.991-.4-1.152s.279-.879.279-.879l2.632-2.349c0,0 .596-.757.875-1.035s2.745-1.352 2.745-1.352l1.677-1.63 .279-6.018c0,0-.598-2.236-.637-2.431-.039-.204-1.194-3.983-1.194-4.145s-.398-2.47-.443-2.672c-.032-.192.914-2.863.914-2.863l1.319-2.593 5.38-6.173 3.03-2.426 4.579-7.493 1.475-3.467 .315-3.501-.953-.16c0,0-.48.557-.599.635s-2.868.242-2.868.242l-3.347.992-1.633.598-1.593-1.67 .238-1.194-2.148-2.553-3.029-3.022c0,0-1.519-1.158-1.437-1.274s-.839-2.911-.839-2.831-1.512-1.392-1.512-1.392l-.039-2.672-1.633-2.665-1.789-3.27c0,0-1.517-3.746-1.677-3.945s-.754-1.192-.557-1.153 1.633-.159 1.633-.159 2.667,3.149 2.667,3.308 1.597,2.825 1.597,2.825 1.193,1.675 1.193,1.552c0-.113.279,1.554.238,1.677s.717,1.953.717,1.953l2.272,2.033 .477,1.471 2.071,2.27 .401,1.436-1.397-1.279c0,0-.438.719-.279.842s1.553,1.591 1.553,1.591l.683,2.029 .518,1.915 .754.637 2.233-.437 .395-.88h2.192l.955-.715 1.191-.16c0,0 .918-.917.997-.957l3.627-1.59s.077-1.16.238-1.16 3.708-1.115 3.708-1.115l.357-1.353 1.271-.08 .359-.914 1.235-.756 .155-1.993 .919.276 .281-.678-.318-.433 1.395-2.031 .039-.721-1.355-1.234-.635-.676c0,0-2.153-.242-2.235-.401s-.914-2.073-.914-2.073c0-.594.039-1.673-.082-1.591s-.793.835-.793.835l-2.465,2.272-2.156.557c0,0-.714-.199-.756-.317s-.119-1.954-.119-1.954-.92-1.075-.956-1.233-.719,1.396-.719,1.396-1.036-1.396-.919-1.44-.477-1.392-.477-1.392l-2.068-2.387-.119-1.237c0,0 .996-1.078 1.154-1.118s1.592-.237 1.753.283c.16.513 1.355,2.272 1.355,2.51s1.829,1.83 2.031,1.79 .911.358 1.154.518 .713.438.914.64 .717.079.717.079l1.315-.201c0,0 1.074-1.036 1.117-.836s1.271.282 1.113.557 .044,1.079.158,1.317c.124.241 5.497,1.077 5.497,1.077l2.474.318c0,0 2.623-.241 2.783-.241s1.837.163 1.995.117c.156-.035 2.547,2.591 2.547,2.591l2.231,1.12 .515-.042-1.268.559c0,0 .432.996.432,1.114s2.233,1.714 2.233,1.714 .795-.521.914-.521 .679-.198.72-.477-.122-1.073.078-1.153 .476-.321.523.04c.035.356.521,3.782.438,3.819-.087.047.676,2.592.676,2.711s.996,3.229 1.033,3.348 1.672,3.623 1.791,3.743 1.714,4.26 1.714,4.26 .918,1.714.877,1.995 .32,1.632.56,1.792 1.311.558 1.311.558 .596-.521.64-.677 .477-.875.632-1.113 .885-.318.921-.161 .878.558.878.558l-.087,1.95c0,0 .164,1.271.281,1.757 .126.477 1.118.875 1.118.875l1.195-1.075 .516-1.837-1.191-1.789c0,0-.914-.995-1.035-1.118s-.884-.234-.884-.234 .087.399.164.555-.164.202-.164.202l-.914-.357 .16-1.045c0,0 .685-.117.802-.117s-.048-1.592-.048-1.592 .247-2.825.327-2.905-.121-2.868-.44-2.986 0-1.035.161-1.076 1.711-.597 1.711-.597l.873-1.713 1.677-1.158c.117-.08 1.908-1.988 1.908-2.231 0-.235.204-.833.679-.918 .479-.075 1.358-.713 1.358-.713v-1.316c0,0 .158-.637.516-.795 .355-.16 1.273-.281 1.273-.281s.202.519.08.597 2.03-.597 2.03-.597 .955,0 1.115-.038 .64-.755.64-.755-.204-.641.073-.483c.284.165.962.88.884,1-.085.114.395.913.279,1.231s1.831,2.474 1.831,2.474 .952-.441.875-.122-.277,1.317-.277,1.317 .598.396.834.437 .917,1.353.917,1.353-.16,1.192-.16,1.352 .086,1.317.039,1.517c-.039.198 1.633.562 1.633.562s1.322-1.084 1.402-1.206zm-118.106-59.191 1.317-1.116 .281-1.077c0,0 1.232.201 1.269.36s.323-.36.636-.079c.322.278.721.235.762.476s.277.519.316.359 .039-.677.039-.677-.355-.198-.557-.322-.159-.477.041-.592c.196-.119.754-.444.915-.322s.878-.159.878-.159 .119-.243.197-.357c.083-.124.481-1.197.481-1.197s-.284-.119-.362-.479 .44-1.393.562-1.431c.114-.041 1.674-.959 1.674-.959s.596-.639.357-.835-2.032-1.077-2.032-1.276-.199-1.235-.083-1.631 .84-1.157.958-1.317 .997-1.232 1.157-1.196 .756-.08.912-.156 1.553-.719 1.315-.758 .081-.756-.041-.717 .122-.915.401-.994 .754-.438.879-.438c.112,0 1.075.04 1.313.079s1.074-.357 1.193,0 .435.438.16.557-.916.678-1.315,1.034-1.594,1.159-1.754,1.195-.243.119-.559.321-.318-.278-.394.476c-.083.758-.199,1.593-.043,1.875s.277.716.119.916-.041.319 0,.677 .527.516.561.676c.037.159.674.477.674.477 .318-.036.685-.077.758.083 .083.159.243.08.243.08l.671-.163c0,0 .681-.398.921-.358s.555-.079.834,0 1.472-.318 1.636-.279 1.27-.437 1.353-.277 .678.119.678.119l.479.358c0,.238-.479.795-.596.878s-.518.401-.757.318-.402.04-.72-.077-.917-.284-1.078-.284-2.027.444-2.027.444l-.953.276-.165.56 .121.119 .956.596c0,.201.401.08.318.558s-.119.676-.238.914-.598.678-.717.398-.714-.796-.875-.915-.634-.04-.92-.04c-.277,0-.836.399-.836.837s-.277,1-.16,1.431c.121.444.641,1.002.403,1.279s-.797.479-1.035.597-.8.518-.997.597-.797.318-.918.04-.357-.717-.357-.717-.199-.396-.282-.277c-.071.115-.516.16-.516.16l-1.031.397c0,0-.562.397-.679.477s-.719.079-.958.198-.956.718-1.153.439-.317.199-.563-.239c-.233-.437-.157-.916-.438-.834s-.917.238-.992.397c-.083.159-.162.159-.316.318-.16.158-1.317.278-1.317.278v-.079zm33.004,29.496c-.298.778-.298,1.792-.719,2.57-.42.773-.599,1.191-.896,1.675-.3.472-.3,1.132-.776,1.43s-1.193.718-1.612.42c-.415-.3-2.09-.239-2.274-.179s-2.206-.06-2.447.355c-.238.42-1.786.122-2.033,0-.238-.118-3.164-1.315-3.402-1.372s-1.738-.715-1.979-.894-1.729-.363-1.787-.541 .119-.418-.124-.358c-.234.055-1.97.597-2.208.772-.243.186-.773.663-.773.663s-.723.716-.663,1.253 .719.956.481,1.254-1.074.656-1.074.656-.902-.835-1.196-.954c-.299-.12-3.104-.537-3.104-.537l-1.136-1.314c0,0-1.792-1.196-1.972-1.256s-2.152,0-2.454-.238-1.255-1.495-1.731-1.434-.298-.717-.119-.836 .716-1.135.657-1.314 .298-1.193-.298-1.491c-.597-.306-.181-1.321-.181-1.321s.599-.119.36-.119-1.135.06-1.376-.238c-.235-.299-.302-.417-.534-.299-.244.121-1.738.359-1.915.299s-1.612.119-1.851.119 .06.061-.238,0-1.499.481-1.557.716c-.055.239-1.251-.055-1.432,0s-1.913.06-1.913.06l-2.87.478c0,0-1.911.962-1.97,1.26s-.658.777-.836.893-1.252,0-1.318-.178c-.056-.179-1.971.062-1.971.062s-.775-.421-1.014-.24-.238-.779-.238-.779l.298-.711 1.074-.719 2.573-.482 1.255-.833 .773-.299 .476-1.253c0,0 .897-.179.837-.361s-.294-1.016-.294-1.016l1.729-2.687 2.449-1.196 .419-.837c0,0-.235-1.074-.059-1.256s1.792-.539 1.792-.539l2.033.658c0,0 1.074-.715 1.312-.835s1.376-.776 1.376-.776 .116-.537.356-.478 1.255-.179 1.377.299 1.015,1.973 1.015,1.973l1.373,1.435 1.317,1.016 1.614.595c0,0 .954.837 1.132.897s1.074,1.077 1.074,1.077l.477.833c0,0-.297.66-.536.96-.238.295-.955,1.075-1.135,1.011s-1.557-.294-1.557-.294l-1.492.178c0,0-.235.359.182.657s.895.24 1.311.478 1.499.719 1.499.719 .719.116.719.294 .236-.478.176-.895-.121-.953.298-1.074 1.075,0 1.075-.181 .183-.42.183-.42l.537-.652-.06-.417 .541-.425c0,0-.298-.351-.541-.654s-.477-.479-.304-.778c.183-.297.778-.717 1.083-.477s1.191.357 1.131.658 0,.713.122.478c.115-.241.06-1.197.06-1.197s-.479-.655-.898-.715c-.414-.062-1.498-.598-1.794-.717s-.833-.417-.833-.417 .236-.657-.117-.597c-.362.059-1.436-.123-1.436-.299s-1.077-1.021-1.132-1.196c-.06-.183-1.019-1.496-1.019-1.496s-.541-.537-.598-.716-.119-.479-.239-.955 1.193-1.673 1.134-1.495 .3.418.542.955c.235.54 1.192,1.435 1.312,1.793s1.436,1.376 1.73,1.492c.304.118.477.48 1.077.718s.542.355 1.317.716 .895.482 1.01.657c.124.182.598.123.781.421s.417.358.417.656 .243.297.117.895c-.117.597-.295.776-.234.895s1.136,2.334 1.555,2.334 1.67.478 1.491,1.192c-.178.716.775,1.673.775,1.673s.799.051 1.351.143c.023-.417-.065-1.086.388-1.339 .532-.299 1.31-.6 1.189-.895s-.241-.838-.717-1.194c-.472-.357-.956-.543-1.075-1.134-.117-.599-.299-1.379.238-1.138s1.016,1.378 1.26.596c.235-.775.831-1.314 1.248-1.134s1.2.477 1.14.716 .537,2.154.537,2.154 .238.181.357,1.075 .895,1.134.778,1.433-.481.475.479.597c.951.12 1.852.297 1.852.536s.776.364.896.54 .834.537.955.18c.119-.355.359-1.078.538-.958s1.672.124 1.793.604c.124.471 1.137.471 1.137.598 0,.115.896-.299.896-.299s1.253-.958 1.612-.779 1.37-.661 1.251.116 .662,1.496.362,2.271zm5.973-10.516-1.315,1.314-2.271-.3h-1.552l-1.314-.476c0,0-.898-.298-1.076-.479s-1.313-.599-1.313-.599l-2.392.539-1.854.539-.653.595-2.212-.536-1.313-.656-.721-.779h.658l-.234-.955 .115-.656 .595-.361 .421-1.731 .719-.299 .177-.894c0,0 .599-.541.78-.72s.776-1.017.776-1.017l1.43.599c0,0 1.494.181 1.256.242s-.958.897-.958.897 .538.294.785.477c.233.179.774.475.653.836s.896.298.896.298l.359-.597 1.67-.417 .598-.302-.957-.294c0,0-.836-.302-.715-.482s.896-1.375.896-1.375 1.973-.595 2.15-.595c.175,0 1.378-.239 1.378-.239s-.956.955-1.079,1.136 .062.774-.238,1.016-.72.48-.896.541-.063.655.117.716 .779.298.779.298l2.63,1.372 1.612,1.612 1.259,1.021c-.001-.004.533.533.354.711zm15.18,7.884-1.5.179c0,0-1.312-.538-1.368-.775-.065-.238-.362-.776-.542-.657s-.775.18-.953.121-.841-.598-.841-.837-.182-.774.119-1.016 .899-.654.778-.838-.181-.948-.181-1.074c0-.12 0-.237.362-.298l.357-.061s.119-.356-.061-.536-1.257-.957-1.376-1.135c-.112-.178-1.434-1.432-1.612-1.617-.177-.175-.955-.712-.955-.712l-.418-.899 .357-1.134-1.072-.239-.238-.774v-.181l1.131-1.312c0,0 .78-.417.957-.303 .179.124.595-.357.664-.536 .053-.183 1.187-.959 1.43-1.078s.654-.656.896-.357 1.729.778 1.729.778 .542.118.477.354c-.058.243-.537,1.797-.537,1.797s-1.072-.299-1.191-.239-.953.359-.775.836-.656.179-.598.418 .178.596.359.716 1.191.656 1.312,1.015 1.789,1.436 1.789,1.436 .181.118.121.361-.179,1.492 0,1.492 .595-.061.595-.061 .543-1.133.723-1.013 .896.655 1.075,1.073c.175.418.537.834.357.954s-1.017.06-1.255.06c-.235,0-.658-.299-.777-.18s-.357.418-.18.775 .541.898.722,1.021 .353.054.895.538 .715.714.537,1.253-.061,1.016 0,1.193 .178.597.3.776 .116.417.116.417l-1.728.299zm-21.561-47.771c-.021-.008-.044-.008-.052-.008-.019.008.004.008.052.008zm145.179,12.382c.005-.009-.004-.025-.014-.037 .005.041.005.061.014.037zm-107.747-20.16 .073-.029c-.041-.037-.069-.065-.073-.083-.039-.163 0,.112 0,.112zm-16.929,133.443c0,0-1.278,1.438-1.354,1.68-.084.235-1.115,1.51-1.28,1.907-.16.398-1.43,1.273-1.43,1.273l-2.311.957c0,0-.795.08-.558.403 0,0-.16.633-.714,1.352-.56.715 0,1.67 0,1.67l.315,1.593v1.516c0,0-.479,1.673-.717,1.751s-.635.559-.873,1.357-.16,1.353-.16,1.353 .16,1.195-.082,1.436 .398,1.431.641,1.834 .876.633.876.633 .554.48.795.637 1.432-.312 1.432-.312 .879-.398 1.115-.561 .401-.238.875-1.035c.481-.797.163-.559.238-.797 .085-.238.557-1.277.8-2.63 .238-1.355.32-1.275.637-2.469 .316-1.196.715-1.517.795-2.468 .08-.957.158-1.358.236-1.679s.882-1.51.958-2.309c.078-.793.078-1.194-.076-1.51-.158-.323.956-.085 1.112-.562s0,0 .082-.235c.081-.243.163-1.754.163-2.629s-.877-2.236-.965-2.47c-.073-.24-.55.314-.55.314zm79.584-11.549c.243-.637 0-.717-.157-1.035s.315-1.75.955-2.31-.318-.641-.318-.641l-.956.16-.877-1.673c0,0-1.514-1.191-1.99-1.512s.712-.957.712-.957-2.702-2.549-3.022-2.549-1.915-1.273-2.153-1.356-1.512-2.23-1.512-2.23l-5.42-2.707c0,0-.715.64-.715.955 0,.319.957.478.957.478s.316.238.635.399 1.273.955 1.354,1.516 .24.875.797,1.35 1.512.722 1.512.722 .403,1.352.722,1.512 .557.874.712,1.275c.161.398 1.677,2.867 1.591,3.743-.076.877 1.122,2.95 1.122,2.95s2.709,2.148 2.789,2.469 2.063.876 2.063.876 .961-.799 1.199-1.435zm18.484-16.333c0-.318-.877-1.033-1.118-1.354s-1.67-1.595-1.988-1.833 0,0-.477.88-1.037,1.91-1.278,1.988-1.988,1.194-2.469,1.751-1.43,1.993-1.748,1.76c-.318-.243-1.679,1.028-1.679,1.028l-.715,1.753-2.232-.475 .158.719c0,0-.713,1.11-.553,1.354s0,1.117.238,1.59c.236.482.477.799.875,1.117s.477,1.354.238,2.151 .321.955.637,1.278 1.034.398 1.354.155 .957-.315 1.36-.077c.39.238 1.432.238 1.748.637s1.594.158 1.83.398 1.517-.24 1.833-.563c.315-.312 0-.948 0-1.988 0-1.035.16-.955.721-1.354s.955-.717 1.033-1.271c.083-.561.241-1.516.241-1.995s1.275-.397 1.511-.558c.246-.16-.16-.477-.16-.715s-1.035-1.355-1.271-1.754 .396-2.392.792-2.71 1.119-1.593 1.119-1.912zm-11.153,21.43c.237.08.794.08 1.985.398 1.202.318 2.317.4 2.474.717s1.191,0 1.675-.078 1.596-1.118 2.311-.32c.718.797 2.149.238 2.389.398s.961-.398 1.832-.316c.878.076.958.316 1.196.316s1.035.24 1.434.155 .875-.554 1.593-.472 2.627-.562 2.627-.562 0,.081-.472.399c-.481.318-2.075,1.511-2.075,1.511s-.24-.157-.321.323-.554,1.435-.077,1.032c.48-.393 2.153-1.829 2.552-2.147 .394-.318.554-.48.953-.719s1.273-.479 1.273-.479l.561-.398c0,0-.48-.316-.721-.238-.234.083-.637-.316-1.191-.078-.56.238-2.071.477-2.071.477s-.957.161-1.514-.077-1.198-.638-1.435-.321-1.592.717-1.835.717c-.235,0-1.113-.08-1.75-.237s-.798-.158-1.116-.158-.318-.238-1.194-.321-1.122-.316-1.352-.238c-.247.083-.637.16-.955.321s-1.282.155-1.514-.083c-.243-.238-2.635-.715-2.635-.715s-.316-.398.403-.637c.715-.238.559-.238.475-.555s-1.276-.324-1.59-.238c-.318.074-1.12.238-1.438-.086-.316-.312-1.273-1.118-1.589-.638s-.16,1.118-.481,1.04-2.472.158-2.472-.078-.557-.879-.797-.962-.158-.315-.555-.48c-.4-.151-1.195.082-1.195.082l-.795.083-.958,1.113c0,0 2.231.242 2.47.559s1.434,1.273 1.434,1.273 1.59.398 1.991.477 2.232.159 2.47.24zm-2.626-44.691c-.247-.158-.879-.158-.879-.158l-.798.317-.398-.159-.879,1.197c0,0 .24,1.352.479,1.352s1.115,0 1.115,0l.88-.636 .48-1.193c0,0 .233-.56 0-.72zm12.902-3.186 .479-.958c0,0 .24-.956.317-1.194s.396-.958.163-1.356c-.24-.398-.082-.954-.24-1.273s-.24-.796-.24-.796l-.797.317c-.318.318-.795,1.752-.795,1.752s-.319,1.439-.081,1.75l.876,1.198 .318.56zm10.037,23.977c.717.241.957.085.875-.242-.078-.318-.318-1.988-.477-2.623s.955-1.118-.238-2.071c-1.193-.96-1.113-.875-1.193-.96s-.081-.875-.081-.875 .238-.795.081-1.033-.319-.717-.479-.955-.16-.318-.639-.318-.477-.559-.795-.482-1.115.716-.559-.234c.559-.962.242-1.12.242-1.28s-.403-.396-.799-.475-.718-.559-1.274-.4-.795-.236-1.115-.236-.477-.401-.555-.875c-.082-.479.078-1.436.078-1.673s.477-.958.477-.958 .16-.322 0-.877c-.158-.556-.477-1.513-.477-1.91s-.88-.797-.88-.797l-1.037.398-.396,3.506c0,0-.716.236-.634.554 .075.321.075,1.835.476,2.153s1.037.715 1.037.715c.156.4-.236,1.193-.236,1.193s.951,1.12 1.036,1.44c.076.316.557.155.557.155s-.238-2.15.236-1.754c.479.4 1.752.325 1.83.799 .083.479.958.955 1.113,1.436s1.198.638 1.122,1.032c-.082.4-.721.4-1.122.479-.394.08-1.67-.873-1.67-.873s-.318-.08-.396.395 .158,1.672.477,2.07 .637,0 .798.238 0,.8.24,1.12c.235.318.873.396 1.115.236s1.035-.557 1.035-.557-.084-.955-.4-1.118-.797-.637-.555-.872c.236-.241.713-.718.955-.64 .234.08.798,1.116.715,1.354s0,.321.321,1.194c.315.882.477.721.077.882s-.795.637-1.037.795c-.053.037-.061.06-.053.075-.058-.019-.211-.047-.582-.075-1.04-.08-.799-.557-1.04-.08-.235.477-.477.875-.477.875l-.554.238c0,0-.401,1.273-.321,1.67l.078.405s.797-1.517 1.038-1.517c.235,0 .235.398.557.158s.641-.076.641-.076 .477-.242.395.393c-.073.637-.073.717.158,1.362 .245.633.882.953 1.12,1.191s.554.398.715.557 .238-.717.16-1.354-.399-1.12.316-.878zm-5.574,9.64c.882.479 1.432.72 2.149.958s1.432-.479 1.594-.317 .878-.56.878-.56 .554-.797.477-1.033-.161-.959-.321-.719-1.672,1.115-1.988,1.192-1.115-.237-1.832-.237-2.47-.559-2.713-.32c-.231.242-.953,1.194-.875,1.596s0,.637 0,.879-.238,1.352-.238,1.035l-1.114,2.942c0,0 .874,2.235.798,2.634s-.242,2.63 0,2.387 1.43-.398 1.43-.398 .403-1.434.325-2.07-.802-2.63-.165-2.47 1.278.955 1.278.955-.48.483-.32.8 .717.715.639,1.432 .238,1.037.238.795 .798.16.878.32c.068.143.822-.524.939-.518 .009-.238.128-1.215-.066-1.473-.241-.318-.241-.795-.793-1.432-.562-.644.158-.798-.401-1.521-.557-.712-.795-.474-.557-.712s.718-.399 1.116-.638c.394-.24.715-.875.715-.875 .08-.238.242-.158-.396-.318s-1.198-.322-1.595.16c-.396.475-.795.555-.795.555s0,0-.318.08-.24-.477-.479-.557-.243-.158-.398-.715 0-1.436.242-1.599 .791-.717 1.668-.238zm2.069,9.321c.009-.027 0-.037-.014-.039-.004.054 0,.085.014.039zm31.228,0c-.076-.479-.16-1.035-.392-1.432-.245-.398-5.425-3.111-6.062-3.349s-3.975-1.274-3.975-1.274-1.599.637-1.599.878-.798,1.115-1.118,1.436-.237.635-.714.557-.555,0-.802-.24c-.231-.238-.474-1.04-.792-1.275-.321-.238-.956-.557-.802-1.194 .164-.637.398-1.512-.078-1.512s-1.191.321-1.352.076c-.16-.234-1.113-.154-1.113-.154l-1.989.557-.247.08c0,0 .88,1.671 1.441,1.51s1.59,1.116 1.59,1.116-.316.719-.158.957 .797,1.435.797,1.435l1.273-.08 1.274.557 3.428,1.115 .96,1.111 .557,2.396c0,0-1.438.953-1.356,1.352s1.833-.077 1.833-.077l1.432.715 1.748.875 1.997.077 1.191-1.352c0,0 1.75-1.512 1.75-1.193s1.597.955 1.837,1.673 1.674,1.995 1.674,1.995 1.988.637 2.229.717c.236.074.798.158 1.358.316s-.561-1.437-.561-1.437-1.755-1.035-1.833-1.434-1.512-1.59-1.432-1.989-.642-.875-.319-.875 1.591-.158 1.433-.402c-.158-.234-1.035-1.751-1.433-1.751s-1.591-.003-1.675-.481zm2.711,26.926c0,0-.875-.395-.955-.236s-.401-1.514-.401-1.514l.16-.875c0,0-2.393-3.031-2.466-2.788-.087.238-.88-2.47-.88-2.47l-.237-2.947-.558-1.754-1.432.16-.32-2.87-.802-2.708-.394-.158-.798,1.83c0,0-.398,2.552-.559,3.428s-.238,2.152-.715,2.949-1.595,2.705-1.595,2.705-1.275,0-1.436-.238-1.59-.957-1.59-.957l-.88-1.353-1.429-1.113c0,0-.964-1.198-1.04-1.118s.722-1.113.953-1.274c.247-.158.321-.953.321-.953l1.275-1.039c0,0 .239-.399 0-.635s-.24-.64-.557-.722-2.153.802-2.153.802l-1.512-.72c0,0-1.118-.559-1.352-.957-.24-.396-.88-.635-1.038-.477s0,.955 0,.955 .327.702.442.921c-.146-.124-.681.277-.681.277l-1.514.155-.958.876-.717,1.357-.476.956c0,0 .396.637.238.556s-2.312.559-2.312.559-.561-1.194-.799-1.433-.953-.638-1.273-.638-1.114.718-1.114.718l-.315,1.671-1.198-.318-1.038,1.752-1.026.401-.565,1.193-.316-1.271-1.195,1.113-.401,1.828c0,0-1.514,1.437-1.674,1.755s-3.509,1.517-3.509,1.517l-2.145.715c0,0-1.115.238-1.355.238s-2.313,1.516-2.313,1.516l-.711.715-.24-.637-.877.955v1.993l-.877,1.192 .479,1.831-.717.242-.637.481 .718,1.434 .238,2.623c0,0 .397.8.319,1.28-.079.473-.4.953-.4,1.271s.24,1.512.24,1.83-.72,2.396-.72,2.396l-.872,1.432-.715.08c0,0 .154,1.515.395,1.515s.958.315 1.592.559c.64.233 1.674-.16 1.914-.243s1.993-1.035 1.993-1.035 1.035-.715 1.352-.637 1.757-.158 1.991,0c.24.16 2.072.08 2.072.08l1.113-1.193 3.03-1.356 1.516-.16 3.659-1.034 3.108.317c0,0 2.632,1.915 2.632,1.755s.557,1.037.557,1.037l-.158,1.51c0,0 .874.717.952.479s.96-1.195 1.2-1.434c.233-.238.957-.555 1.515-.953 .554-.4.712-.639.712-.639s-.555,1.592-.797,1.592-.72.477-.958.797-.632.56-.632.72 .477.155.71,0c.243-.16.642-.642.965-.802s.479-.078.394.32-.078.793-.394.953-.722.398-1.281.72c-.552.32-.952.077-1.193.32s.158.481.318.637 .562.64.875.082c.316-.559.724-.962.958-1.117 .238-.156.717-.642.717-.243s.243.802.318,1.123-.555.952-.479,1.11 .882,1.913.882,1.913 .477.633 1.031.633c.559,0 1.75.402 1.992.485 .234.075 1.356,0 1.517-.321s1.113-.957 1.035-.719 .078.719.316.957 .637.88.637.88l2.949-2.315c0,0 2.229-.479 2.308-.238s1.512-1.59 1.512-1.59l4.54-5.576 1.76-1.198 1.272-1.833 1.75-3.191 .957-3.576 .718-2.71-1.753-2.633-.713-2.233zm-17.688,29.718c0,0-1.113-.717-1.277-.955v-.24l-.793,2.467-.715,2.633c0,0 1.43.16 1.59.238s2.552-1.353 2.634-1.673 1.672-2.948 1.672-2.948-2.547.557-3.111.478zm43.182-4.619-.798-.802c0,0 .083-1.113-.16-1.113-.235,0-.637.08-.637.08l.401-2.792-1.441-.873-.314,4.302-1.038,2.395-2.066.797c0,0 .875.873 1.193.873s-.24.956-.24.956l-1.354,1.196c0,0-.475-.241-.475-.878s-1.278.637-1.278.637l-.875-.559-2.392,2.068-3.265,1.677-7.646,4.703 1.033.557c0,0 .956.398 1.036.559s2.389-1.037 2.389-1.037l2.631-1.915 1.27-1.113c0,0 2.315-.637 2.233-.318s.717-1.513.717-1.513l2.231-1.195 1.356-1.352 1.113.313 1.594-.557 2.709-1.751 .477-1.437 .88.085 1.668-1.198 1.115-1.912-2.067,1.117zm-321.055-174.708c.637.234 1.034.317 2.391.397s1.515-.08 2.151.157c.632.236 1.192.643 1.433.077 .238-.554.557-.554.795-.874s0-.637.397-.796 1.117.639 1.117.639-.878.558-.48.634 1.513.32 2.074.397 .08.239 1.036.327c.954.075 1.353-.088 2.546-.088 1.196,0 1.917-.553 2.314-.397s1.75.158 2.147.081 1.359-.954.958-.954-1.913-.401-2.549-.479-2.633-.159-3.105.079c-.482.24-1.039.401-1.357.24s1.357-1.432 2.47-1.274c1.117.159 2.788-.158 3.345-.079s1.916.318 1.916.318 .315-.159.394-.397l.161-.478 .798.716c0,0 5.255-2.149 5.497-2.55s3.58-1.435 4.065-1.352c.477.076 3.74-1.356 4.302-1.118 .55.239 3.501-.713 3.501-.713s2.154-.48 2.632-.48 .716-.556 0-.477-6.696.079-8.126,0c-1.438-.079-4.941-.003-5.498.079s-3.748.956-5.1.878c-1.356-.081-5.735.554-5.973.475s-1.99-.159-1.83-.159-2.315,1.992-2.713,1.432 0-.955-.397-.557-.319,2.232-.319,2.232c.477.32 1.513,1.434 2.232.957 .713-.479 1.113-.239 1.352-.162s-1.113,1.117-1.913,1.117-3.347.956-3.347.956-1.116-1.036-1.355-1.115-1.59-.159-1.829-.159-.558-.238-.637.478 .079,1.83-.716,1.671c-.798-.16-1.035.158-1.435-.078s.56-1.435-.561-1.514-1.751-.875-2.388.397-1.031,1.273-.396,1.516zm-28.838,4.935c-.242.402 2.067.56 2.225.243 .167-.322 1.598-.083 1.915-.558s1.909-1.436 2.148-1.277-.477.956-.716,1.037 .801.157-.239.958c-1.033.795-.794,1.514-.794,1.514s-.876.397-.239.557 1.831.716 1.831.716 .079.557.079.717 .401.637 1.273.08c.882-.558 2.632-1.193 2.871-.955s.798-.08 1.597-.16c.793-.078 1.433-.318 1.433-.318l1.034.16c.479.238.879-.318 1.679.158 .792.478 1.905.478 1.905.478s1.118-.875 1.355-.954 .717-.159.478-.717-1.114-1.434-.875-1.598 .795-.318.716-1.83 .159-1.271-.239-1.193-1.355.558-1.355.558l-.316-.08c-.158.477-.877.796-1.041,1.274s-.628.716-.628.318-.56-.479-.645-.797c-.074-.319-.795-.238-1.192-.159s-1.516-.717-1.915-.398c-.394.319-.797-.158-1.115-.875s-.716-1.277-1.194-1.2-3.425,0-3.425,0l-1.753.159c0,0-.954.243-.954.723s-.16.797-.637.955-3.985,1.433-3.985,1.433 .957.632.718,1.031zm25.014-1.909-.876-.16c0,0-.079-.637-.317-.637-.247,0-.958.876-.958.876s1.038.398 1.197.717 .556.715.556.957c0,.235 2.628-.798 2.628-.798l1.438-.717c0,0 .074.159.159-.238 .08-.398-.159-.716 0-.797s.795-1.113.157-.954-1.994,0-2.63.238-1.431-.316-1.352.318c.077.637-.002,1.195-.002,1.195zm-12.748-3.666c0,0 .318,1.355.958.958s2.466.958 2.466,1.113 .636.083.636.083l2.792-.959 1.558-.237c0,0 1.47-.083 1.707.08s1.437-.397 1.437-.397l.476-.801-1.037-.318 .242-.796c0,0-.321-.478-1.035.079-.722.558-2.711,1.671-2.553,1.435s-.794.078-1.193-.401-.956-.557-.956-.557-1.12-.397-1.514-.238c-.4.159.716-.796.716-.796s.239-.877-.243-.796c-.473.081-4.379.956-4.379.956s-1.673.955-1.99.715-1.512.159-1.512.159l.796.478c.238-.239 2.628.24 2.628.24zm17.766-3.265c.238.077 2.152.635 2.391.716s.958.239 1.271.16c.318-.079 1.594-.715 1.119-.955s-1.993-.563-2.312-.724-1.515-.233-1.515-.233l-.717.155c-.157.239-.475.803-.237.881zm-7.649,1.354c.324-.158 1.437-.637 1.437-.637l.951-.795 .322-.403c0,0-.716-.633-1.035-.399-.318.239-1.996.958-1.996.958l-.079.558-1.307.56c0,0 1.386.317 1.707.158zm14.343-.238c.314.08 1.271.08 1.351-.16s-.079-1.916-.079-1.916-.322-.474-.718-.395-1.671.713-1.671.713c-.081.242.795,1.678 1.117,1.758zm-20.121,84.9c-.055-.177-.954-.47-1.431-.47s-2.212-1.678-2.328-2.037-4.004-1.312-4.004-1.312-4.243-.24-4.243-.357c0-.125-2.033,1.612-2.033,1.612v.178c0,0 .175.835.243,1.015 .056.178 1.372-.958 1.491-1.434s1.074-.599 1.312-.719 .358.483.598.483 1.317.356 1.317.356l2.151.717 .836.775c0,0 .357,1.908.357,2.151s1.614.116 1.614.116l3.166-.292c-.001-.001 1.018-.602.954-.782zm-.115,4.005c.295.119.772-.059 1.014-.059s1.018-.179 1.018-.179 .238.538.238.718 1.253-.062 1.253-.242 .299-.656.299-.656l1.491-.298 2.213.06c.18,0 .3-.358-.062-1.015-.355-.659-1.375-.782-1.614-1.261-.239-.474-1.372-.171-1.672,0-.298.181-1.968-.412-2.449-.412-.474,0 0,.537 0,.537l-.18,1.732h-1.97l-.061.178c0,0-.539.18-.539.539s.719.239 1.021.358z" fill="#cdd7e2"/>
</svg>
